# xmcd CD database file
#
# Track frame offsets:
#	150
#	18975
#	33300
#
# Disc length: 692 seconds
#
# Revision: 0
# Processed by: cddbd v1.5PL3 Copyright (c) Steve Scherf et al.
# Submitted via: CDex 1.50beta9
#
DISCID=1802b203
DTITLE=大城光恵 - 中年よ大志を抱け
DYEAR=1992
DGENRE=J-POP
TTITLE0=中年よ大志を抱け
TTITLE1=Ｂｅｌｉｅｖｅ　Ｍｅ
TTITLE2=中年よ大志を抱け　カラオケ
EXTD=YEAR: 1992
EXTT0=
EXTT1=
EXTT2=
PLAYORDER=
